<svg width="24" height="24" viewBox="0 0 24 24" fill="none" xmlns="http://www.w3.org/2000/svg">
<path d="M12.6 9.59999C12.6 9.26862 12.3314 8.99999 12 8.99999C11.6687 8.99999 11.4 9.26862 11.4 9.59999L11.4 11.4H9.60002C9.26865 11.4 9.00002 11.6686 9.00002 12C9.00002 12.3314 9.26865 12.6 9.60002 12.6H11.4V14.4C11.4 14.7314 11.6687 15 12 15C12.3314 15 12.6 14.7314 12.6 14.4V12.6H14.4C14.7314 12.6 15 12.3314 15 12C15 11.6686 14.7314 11.4 14.4 11.4H12.6V9.59999Z" fill="#1E1E1E"/>
<path fill-rule="evenodd" clip-rule="evenodd" d="M12 3.39999C7.25038 3.39999 3.40002 7.25035 3.40002 12C3.40002 16.7496 7.25038 20.6 12 20.6C16.7497 20.6 20.6 16.7496 20.6 12C20.6 7.25035 16.7497 3.39999 12 3.39999ZM4.60002 12C4.60002 7.91309 7.91312 4.59999 12 4.59999C16.0869 4.59999 19.4 7.91309 19.4 12C19.4 16.0869 16.0869 19.4 12 19.4C7.91312 19.4 4.60002 16.0869 4.60002 12Z" fill="#1E1E1E"/>
</svg>
