<svg width="24" height="24" viewBox="0 0 24 24" fill="none" xmlns="http://www.w3.org/2000/svg">
<path fill-rule="evenodd" clip-rule="evenodd" d="M8.90883 3.68202C9.08446 3.96302 8.99903 4.33319 8.71803 4.50881L5.51801 6.50881C5.23701 6.68444 4.86684 6.59901 4.69121 6.31801C4.51559 6.03701 4.60101 5.66684 4.88201 5.49121L8.08203 3.49121C8.36304 3.31559 8.73321 3.40101 8.90883 3.68202ZM15.0912 3.68201C15.2668 3.40101 15.637 3.31559 15.918 3.49121L19.118 5.49121C19.399 5.66684 19.4844 6.03701 19.3088 6.31801C19.1332 6.59901 18.763 6.68444 18.482 6.50881L15.282 4.50881C15.001 4.33319 14.9156 3.96302 15.0912 3.68201ZM12 6.20001C8.35493 6.20001 5.40001 9.15493 5.40001 12.8C5.40001 16.4451 8.35493 19.4 12 19.4C15.6451 19.4 18.6 16.4451 18.6 12.8C18.6 9.15493 15.6451 6.20001 12 6.20001ZM4.20001 12.8C4.20001 8.49219 7.69219 5.00001 12 5.00001C16.3078 5.00001 19.8 8.49219 19.8 12.8C19.8 17.1078 16.3078 20.6 12 20.6C7.69219 20.6 4.20001 17.1078 4.20001 12.8ZM9.60001 11C9.26864 11 9.00001 10.7314 9.00001 10.4C9.00001 10.0686 9.26864 9.80001 9.60001 9.80001H14.4C14.6427 9.80001 14.8615 9.9462 14.9543 10.1704C15.0472 10.3946 14.9959 10.6527 14.8243 10.8243L11.0485 14.6H14.4C14.7314 14.6 15 14.8686 15 15.2C15 15.5314 14.7314 15.8 14.4 15.8H9.60001C9.35734 15.8 9.13855 15.6538 9.04568 15.4296C8.95282 15.2054 9.00415 14.9473 9.17575 14.7757L12.9515 11H9.60001Z" fill="white"/>
</svg>
