<svg width="18" height="18" viewBox="0 0 18 18" fill="none" xmlns="http://www.w3.org/2000/svg">
<path fill-rule="evenodd" clip-rule="evenodd" d="M9 1.59999C4.91309 1.59999 1.6 4.91309 1.6 8.99999C1.6 13.0869 4.91309 16.4 9 16.4C13.0869 16.4 16.4 13.0869 16.4 8.99999C16.4 4.91309 13.0869 1.59999 9 1.59999ZM0.400002 8.99999C0.400002 4.25034 4.25035 0.399994 9 0.399994C13.7497 0.399994 17.6 4.25034 17.6 8.99999C17.6 13.7496 13.7497 17.6 9 17.6C4.25035 17.6 0.400002 13.7496 0.400002 8.99999ZM7.37574 6.17573C7.61005 5.94142 7.98995 5.94142 8.22426 6.17573L10.6243 8.57573C10.8586 8.81004 10.8586 9.18994 10.6243 9.42426L8.22426 11.8243C7.98995 12.0586 7.61005 12.0586 7.37574 11.8243C7.14142 11.5899 7.14142 11.21 7.37574 10.9757L9.35147 8.99999L7.37574 7.02426C7.14142 6.78994 7.14142 6.41004 7.37574 6.17573Z" fill="white"/>
</svg>
