<svg width="18" height="18" viewBox="0 0 18 18" fill="none" xmlns="http://www.w3.org/2000/svg">
<path fill-rule="evenodd" clip-rule="evenodd" d="M8.99999 1.59999C4.91309 1.59999 1.59999 4.91309 1.59999 8.99999C1.59999 13.0869 4.91309 16.4 8.99999 16.4C13.0869 16.4 16.4 13.0869 16.4 8.99999C16.4 4.91309 13.0869 1.59999 8.99999 1.59999ZM0.399994 8.99999C0.399994 4.25034 4.25034 0.399994 8.99999 0.399994C13.7496 0.399994 17.6 4.25034 17.6 8.99999C17.6 13.7496 13.7496 17.6 8.99999 17.6C4.25034 17.6 0.399994 13.7496 0.399994 8.99999ZM10.6243 6.17573C10.8586 6.41004 10.8586 6.78994 10.6243 7.02426L8.64852 8.99999L10.6243 10.9757C10.8586 11.21 10.8586 11.5899 10.6243 11.8243C10.3899 12.0586 10.01 12.0586 9.77573 11.8243L7.37573 9.42426C7.14141 9.18994 7.14141 8.81004 7.37573 8.57573L9.77573 6.17573C10.01 5.94142 10.3899 5.94142 10.6243 6.17573Z" fill="white"/>
</svg>
