<svg width="18" height="18" viewBox="0 0 18 18" fill="none" xmlns="http://www.w3.org/2000/svg">
<path fill-rule="evenodd" clip-rule="evenodd" d="M5.00002 0.800003C5.3314 0.800003 5.60002 1.06863 5.60002 1.4V2.01018C6.12965 1.99999 6.71315 2 7.35489 2H10.6452C11.2869 2 11.8704 1.99999 12.4 2.01018V1.4C12.4 1.06863 12.6687 0.800003 13 0.800003C13.3314 0.800003 13.6 1.06863 13.6 1.4V2.06167C13.808 2.07753 14.0049 2.09746 14.1912 2.12251C15.1292 2.24861 15.8883 2.51431 16.487 3.113C17.0857 3.71169 17.3514 4.47085 17.4775 5.40878C17.5178 5.70854 17.5449 6.03567 17.563 6.39206C17.5869 6.45685 17.6 6.52689 17.6 6.6C17.6 6.65546 17.5925 6.70916 17.5784 6.76013C17.6 7.40172 17.6 8.1302 17.6 8.95487V10.6C17.6 10.9314 17.3314 11.2 17 11.2C16.6687 11.2 16.4 10.9314 16.4 10.6V9C16.4 8.31679 16.3998 7.72219 16.3896 7.2H1.61049C1.60028 7.72219 1.60002 8.31679 1.60002 9V10.6C1.60002 12.1255 1.6013 13.2092 1.71183 14.0313C1.82004 14.8362 2.02298 15.2999 2.36155 15.6385C2.70012 15.977 3.16383 16.18 3.9687 16.2882C4.79083 16.3987 5.87457 16.4 7.40002 16.4H10.6C10.9314 16.4 11.2 16.6686 11.2 17C11.2 17.3314 10.9314 17.6 10.6 17.6H7.3549C5.88469 17.6 4.72018 17.6 3.80881 17.4775C2.87087 17.3514 2.11171 17.0857 1.51302 16.487C0.914329 15.8883 0.648635 15.1292 0.522533 14.1912C0.400002 13.2798 0.400012 12.1153 0.400025 10.6451V8.95487C0.400018 8.1302 0.400011 7.40172 0.421632 6.76014C0.407549 6.70916 0.400025 6.65546 0.400025 6.6C0.400025 6.5269 0.4131 6.45684 0.437039 6.39205C0.455188 6.03567 0.482232 5.70853 0.522533 5.40878C0.648635 4.47085 0.914329 3.71169 1.51302 3.113C2.11171 2.51431 2.87087 2.24861 3.80881 2.12251C3.99515 2.09746 4.19207 2.07753 4.40002 2.06167V1.4C4.40002 1.06863 4.66865 0.800003 5.00002 0.800003ZM1.66537 6H16.3347C16.3219 5.84849 16.3065 5.70499 16.2882 5.56868C16.18 4.76381 15.9771 4.30009 15.6385 3.96153C15.2999 3.62296 14.8362 3.42002 14.0313 3.31181C13.2092 3.20128 12.1255 3.2 10.6 3.2H7.40002C5.87457 3.2 4.79083 3.20128 3.9687 3.31181C3.16383 3.42002 2.70011 3.62296 2.36155 3.96153C2.02298 4.30009 1.82004 4.76381 1.71183 5.56868C1.69351 5.70499 1.67818 5.84849 1.66537 6ZM13.8 12C12.8059 12 12 12.8059 12 13.8C12 14.7941 12.8059 15.6 13.8 15.6C14.7941 15.6 15.6 14.7941 15.6 13.8C15.6 12.8059 14.7941 12 13.8 12ZM10.8 13.8C10.8 12.1431 12.1432 10.8 13.8 10.8C15.4569 10.8 16.8 12.1431 16.8 13.8C16.8 14.4115 16.6171 14.9802 16.303 15.4544L17.4243 16.5757C17.6586 16.8101 17.6586 17.19 17.4243 17.4243C17.19 17.6586 16.8101 17.6586 16.5758 17.4243L15.4545 16.303C14.9802 16.6171 14.4115 16.8 13.8 16.8C12.1432 16.8 10.8 15.4569 10.8 13.8Z" fill="#D1FF1B"/>
</svg>
