<svg width="24" height="24" viewBox="0 0 24 24" fill="none" xmlns="http://www.w3.org/2000/svg">
<path d="M15.2243 10.4243C15.4586 10.1899 15.4586 9.81004 15.2243 9.57573C14.99 9.34142 14.6101 9.34142 14.3758 9.57573L10.8 13.1515L9.62429 11.9757C9.38997 11.7414 9.01008 11.7414 8.77576 11.9757C8.54145 12.21 8.54145 12.5899 8.77576 12.8243L10.3758 14.4243C10.6101 14.6586 10.99 14.6586 11.2243 14.4243L15.2243 10.4243Z" fill="#1E1E1E"/>
<path fill-rule="evenodd" clip-rule="evenodd" d="M12 3.39999C7.25038 3.39999 3.40002 7.25035 3.40002 12C3.40002 16.7496 7.25038 20.6 12 20.6C16.7497 20.6 20.6 16.7496 20.6 12C20.6 7.25035 16.7497 3.39999 12 3.39999ZM4.60002 12C4.60002 7.91309 7.91312 4.59999 12 4.59999C16.0869 4.59999 19.4 7.91309 19.4 12C19.4 16.0869 16.0869 19.4 12 19.4C7.91312 19.4 4.60002 16.0869 4.60002 12Z" fill="#1E1E1E"/>
</svg>
