<svg width="24" height="24" viewBox="0 0 24 24" fill="none" xmlns="http://www.w3.org/2000/svg">
<path d="M12 7.39999C12.3314 7.39999 12.6 7.66862 12.6 7.99999V12.8C12.6 13.1314 12.3314 13.4 12 13.4C11.6687 13.4 11.4 13.1314 11.4 12.8V7.99999C11.4 7.66862 11.6687 7.39999 12 7.39999Z" fill="white"/>
<path d="M12 16C12.4419 16 12.8 15.6418 12.8 15.2C12.8 14.7582 12.4419 14.4 12 14.4C11.5582 14.4 11.2 14.7582 11.2 15.2C11.2 15.6418 11.5582 16 12 16Z" fill="white"/>
<path fill-rule="evenodd" clip-rule="evenodd" d="M3.40002 12C3.40002 7.25035 7.25038 3.39999 12 3.39999C16.7497 3.39999 20.6 7.25035 20.6 12C20.6 16.7496 16.7497 20.6 12 20.6C7.25038 20.6 3.40002 16.7496 3.40002 12ZM12 4.59999C7.91312 4.59999 4.60002 7.91309 4.60002 12C4.60002 16.0869 7.91312 19.4 12 19.4C16.0869 19.4 19.4 16.0869 19.4 12C19.4 7.91309 16.0869 4.59999 12 4.59999Z" fill="white"/>
</svg>
