<svg width="24" height="24" viewBox="0 0 24 24" fill="none" xmlns="http://www.w3.org/2000/svg">
<g clip-path="url(#clip0_6_273)">
<path d="M11.6023 20.3784C9.07993 20.3784 6.41021 19.6885 4.38132 18.5014C2.32299 17.297 0.98176 16.2104 0.219057 15.5109C-0.056006 15.2586 -0.0745685 14.831 0.17776 14.556C0.429853 14.2809 0.857541 14.2623 1.1327 14.5147C1.84688 15.1696 3.10871 16.1905 5.06401 17.3347C8.49587 19.3427 15.2148 20.2956 18.7371 15.9634C19.4172 15.1271 19.6809 14.4473 19.9601 13.7275C20.3313 12.7706 20.7451 11.7039 22.1204 10.2475C21.9446 10.1293 21.7942 9.98381 21.7028 9.80592C21.6473 9.69782 21.5868 9.57572 21.5209 9.44236C20.7483 7.88053 19.3105 4.97334 15.9773 4.97334C14.1827 4.97334 12.6371 6.12647 11.3837 8.40051C11.2035 8.72742 10.7921 8.84634 10.4655 8.6662C10.1386 8.48601 10.0196 8.07487 10.1998 7.74801C11.709 5.0099 13.6529 3.62156 15.9772 3.62156C17.7865 3.62156 19.359 4.30537 20.6513 5.65387C21.6926 6.74062 22.3184 8.00582 22.7325 8.84301C22.7833 8.94562 22.8305 9.04125 22.8747 9.12843C22.9869 9.20137 23.2776 9.30356 23.4731 9.34781C23.7176 9.40307 23.9114 9.58912 23.9767 9.83104C24.042 10.073 23.9679 10.3312 23.7843 10.502C22.0276 12.1356 21.6354 13.1463 21.2203 14.2164C20.9155 15.0021 20.6003 15.8146 19.7858 16.8162C17.5008 19.6266 14.3039 20.301 12.0242 20.372C11.8844 20.3763 11.7435 20.3784 11.6023 20.3784Z" fill="#D1FF1B"/>
<path d="M9.46503 15.8264C9.46489 15.8264 9.46475 15.8264 9.4646 15.8264C7.26209 15.8264 5.45042 15.3081 4.07984 14.286C0.492636 11.611 0.437698 5.82572 0.437136 5.5807C0.436386 5.28056 0.63373 5.01581 0.921683 4.93083C0.995417 4.90908 2.75135 4.39819 4.91965 4.39819C7.12207 4.39819 8.93384 4.91644 10.3045 5.93859C12.2788 7.41084 13.1697 9.84703 13.5694 11.6315C13.7879 12.6066 13.5711 13.6245 12.9747 14.4243C12.3784 15.2242 11.4645 15.7223 10.4675 15.7912C10.1288 15.8145 9.79156 15.8264 9.46503 15.8264ZM1.8139 6.10111C1.91412 7.50276 2.41334 11.3571 4.88787 13.2024C6.0199 14.0466 7.55975 14.4746 9.4646 14.4746C9.4646 14.4746 9.46479 14.4746 9.46489 14.4746C9.76053 14.4746 10.0665 14.4639 10.3745 14.4426C10.9778 14.4009 11.5305 14.0997 11.891 13.6162C12.2516 13.1327 12.3825 12.5169 12.2503 11.9269C11.9005 10.3654 11.1388 8.247 9.49639 7.02225C8.36431 6.17798 6.82442 5.74997 4.9196 5.74997C3.61137 5.74992 2.44915 5.95959 1.8139 6.10111Z" fill="#D1FF1B"/>
<path d="M18.0459 10.1729H17.5052C17.132 10.1729 16.8293 9.87032 16.8293 9.49701C16.8293 9.1237 17.132 8.82112 17.5052 8.82112H18.0459C18.4192 8.82112 18.7218 9.1237 18.7218 9.49701C18.7218 9.87032 18.4192 10.1729 18.0459 10.1729Z" fill="#D1FF1B"/>
</g>
<defs>
<clipPath id="clip0_6_273">
<rect width="24" height="24" fill="white"/>
</clipPath>
</defs>
</svg>
