<svg width="18" height="18" viewBox="0 0 18 18" fill="none" xmlns="http://www.w3.org/2000/svg">
<path d="M9.00002 4.4C9.33139 4.4 9.60002 4.66863 9.60002 5V9.8C9.60002 10.1314 9.33139 10.4 9.00002 10.4C8.66865 10.4 8.40002 10.1314 8.40002 9.8V5C8.40002 4.66863 8.66865 4.4 9.00002 4.4Z" fill="#D1FF1B"/>
<path d="M9.00002 13C9.44185 13 9.80002 12.6418 9.80002 12.2C9.80002 11.7582 9.44185 11.4 9.00002 11.4C8.5582 11.4 8.20002 11.7582 8.20002 12.2C8.20002 12.6418 8.5582 13 9.00002 13Z" fill="#D1FF1B"/>
<path fill-rule="evenodd" clip-rule="evenodd" d="M0.400024 9C0.400024 4.25035 4.25038 0.400002 9.00002 0.400002C13.7497 0.400002 17.6 4.25035 17.6 9C17.6 13.7497 13.7497 17.6 9.00002 17.6C4.25038 17.6 0.400024 13.7497 0.400024 9ZM9.00002 1.6C4.91312 1.6 1.60002 4.91309 1.60002 9C1.60002 13.0869 4.91312 16.4 9.00002 16.4C13.0869 16.4 16.4 13.0869 16.4 9C16.4 4.91309 13.0869 1.6 9.00002 1.6Z" fill="#D1FF1B"/>
</svg>
