<svg width="30" height="30" viewBox="0 0 30 30" fill="none" xmlns="http://www.w3.org/2000/svg">
<path fill-rule="evenodd" clip-rule="evenodd" d="M15 2.66666C8.18851 2.66666 2.66669 8.18848 2.66669 15C2.66669 21.8115 8.18851 27.3333 15 27.3333C21.8115 27.3333 27.3334 21.8115 27.3334 15C27.3334 8.18848 21.8115 2.66666 15 2.66666ZM0.666687 15C0.666687 7.08391 7.08394 0.666656 15 0.666656C22.9161 0.666656 29.3334 7.08391 29.3334 15C29.3334 22.9161 22.9161 29.3333 15 29.3333C7.08394 29.3333 0.666687 22.9161 0.666687 15ZM15 9.33332C14.1716 9.33332 13.5 10.0049 13.5 10.8333C13.5 11.3856 13.0523 11.8333 12.5 11.8333C11.9477 11.8333 11.5 11.3856 11.5 10.8333C11.5 8.90033 13.067 7.33332 15 7.33332C16.933 7.33332 18.5 8.90033 18.5 10.8333C18.5 12.1178 17.8076 13.2394 16.7804 13.8471C16.518 14.0023 16.3015 14.1718 16.1604 14.3381C16.0234 14.4995 16 14.6048 16 14.6667V16.3333C16 16.8856 15.5523 17.3333 15 17.3333C14.4477 17.3333 14 16.8856 14 16.3333V14.6667C14 13.9921 14.2953 13.4448 14.6355 13.044C14.9715 12.648 15.3905 12.3456 15.762 12.1258C16.2059 11.8632 16.5 11.3821 16.5 10.8333C16.5 10.0049 15.8284 9.33332 15 9.33332ZM15 21.6667C15.7364 21.6667 16.3334 21.0697 16.3334 20.3333C16.3334 19.5969 15.7364 19 15 19C14.2636 19 13.6667 19.5969 13.6667 20.3333C13.6667 21.0697 14.2636 21.6667 15 21.6667Z" fill="white"/>
</svg>
