<svg width="18" height="24" viewBox="0 0 18 24" fill="none" xmlns="http://www.w3.org/2000/svg">
<path d="M9.0029 20.4635C8.83964 20.4635 8.68036 20.4172 8.54231 20.3295C8.20153 20.1133 5.18535 18.1703 4.23304 16.5606C3.7897 15.8113 3.59198 15.0875 3.59198 14.2136C3.59198 11.9827 5.26729 10.8155 6.92226 10.8155C7.92454 10.8155 8.58534 11.1924 9.00225 11.5864C9.4184 11.1924 10.0782 10.8155 11.0796 10.8155C11.9717 10.8155 12.7957 11.1304 13.3995 11.702C14.0592 12.3263 14.4077 13.1948 14.4077 14.2137C14.4077 15.0864 14.2097 15.8102 13.7657 16.5607C12.8205 18.1585 9.80592 20.1111 9.46537 20.3284C9.32671 20.4168 9.16687 20.4635 9.0029 20.4635ZM6.92231 12.1605C6.00651 12.1605 4.93711 12.6982 4.93711 14.2136C4.93711 14.8496 5.0685 15.3311 5.39071 15.8757C5.98645 16.8827 7.88287 18.2877 9.00225 19.0251C10.1214 18.284 12.017 16.875 12.6081 15.8757C12.931 15.33 13.0627 14.8485 13.0627 14.2136C13.0627 12.6982 11.9945 12.1605 11.0796 12.1605C10.2374 12.1605 9.84318 12.5672 9.66093 12.9083C9.53067 13.1516 9.27867 13.3024 9.00295 13.3024C8.72746 13.3024 8.47561 13.1519 8.34557 12.9094C8.16225 12.5677 7.76667 12.1605 6.92231 12.1605Z" fill="#D1FF1B"/>
<path d="M8.99997 24C6.61029 24 4.40346 23.1023 2.78599 21.4724C1.12788 19.8015 0.214661 17.4636 0.214661 14.8894C0.214661 9.07078 6.29374 2.29744 8.15683 0.360047C8.37916 0.128813 8.67808 0.0009375 8.99871 0C9.31802 0.00182812 9.61886 0.124969 9.8426 0.354703C10.1557 0.676313 10.6534 1.20169 11.2467 1.87842C11.4916 2.15766 11.4636 2.58262 11.1843 2.82741C10.9051 3.07233 10.4801 3.04448 10.2353 2.76502C9.7345 2.1938 9.30504 1.73498 9.00321 1.4213C7.5003 3.00375 1.55969 9.59578 1.55969 14.8894C1.55969 19.389 4.68874 22.6549 8.99997 22.6549C13.3112 22.6549 16.4402 19.389 16.4402 14.8894C16.4402 11.5773 14.1851 7.85034 12.2934 5.307C12.0716 5.00902 12.1336 4.58775 12.4316 4.36608C12.7296 4.14436 13.1508 4.20623 13.3726 4.50436C16.3006 8.44083 17.7852 11.9348 17.7852 14.8895C17.7852 17.4636 16.8721 19.8015 15.2139 21.4725C13.5964 23.1024 11.3896 24 8.99997 24Z" fill="#D1FF1B"/>
</svg>
