<svg width="29" height="36" viewBox="0 0 29 36" fill="none" xmlns="http://www.w3.org/2000/svg">
<path fill-rule="evenodd" clip-rule="evenodd" d="M11.3122 0.799989H17.8878C20.0759 0.799956 21.8396 0.799929 23.2268 0.986426C24.6669 1.18005 25.8795 1.59428 26.8426 2.55735C27.8057 3.52042 28.2199 4.73301 28.4135 6.17319C28.6 7.56034 28.6 9.32405 28.6 11.5122V24.4878C28.6 26.6759 28.6 28.4396 28.4135 29.8268C28.2199 31.267 27.8057 32.4796 26.8426 33.4426C25.8795 34.4057 24.6669 34.8199 23.2268 35.0136C21.8396 35.2001 20.0759 35.2 17.8878 35.2H11.3122C9.12403 35.2 7.36032 35.2001 5.97317 35.0136C4.53299 34.8199 3.32039 34.4057 2.35733 33.4426C1.39426 32.4796 0.980031 31.267 0.786405 29.8268C0.724491 29.3663 0.683134 28.8643 0.65551 28.319C0.592982 28.1216 0.580805 27.9059 0.629983 27.6909C0.599933 26.7438 0.59995 25.6786 0.599967 24.4878V11.5122C0.599935 9.32405 0.599908 7.56033 0.786405 6.17319C0.980031 4.73301 1.39426 3.52042 2.35733 2.55735C3.32039 1.59428 4.53299 1.18005 5.97317 0.986426C7.36031 0.799929 9.12403 0.799956 11.3122 0.799989ZM3.04278 27.9985C3.0671 28.5646 3.10523 29.0624 3.165 29.507C3.32285 30.681 3.61156 31.3028 4.05438 31.7456C4.4972 32.1884 5.11892 32.4771 6.29296 32.635C7.50152 32.7974 9.1033 32.8 11.4 32.8H17.8C20.0966 32.8 21.6984 32.7974 22.907 32.635C24.081 32.4771 24.7027 32.1884 25.1456 31.7456C25.4597 31.4315 25.6962 31.0274 25.8635 30.4H8.19997C7.53723 30.4 6.99997 29.8627 6.99997 29.2C6.99997 28.5372 7.53723 28 8.19997 28H26.1571C26.1868 27.3104 26.1959 26.5194 26.1987 25.6H8.03641C6.4712 25.6 5.924 25.6103 5.50466 25.7227C4.35375 26.031 3.43625 26.8865 3.04278 27.9985ZM26.2 23.2H8.03641C7.97374 23.2 7.91199 23.2 7.85114 23.1999C6.5424 23.1995 5.64935 23.1992 4.8835 23.4044C4.19873 23.5879 3.56355 23.8876 2.99997 24.2815V11.6C2.99997 9.30332 3.00252 7.70154 3.165 6.49298C3.32285 5.31894 3.61156 4.69723 4.05438 4.25441C4.4972 3.81158 5.11892 3.52287 6.29296 3.36502C7.50152 3.20254 9.1033 3.19999 11.4 3.19999H17.8C20.0966 3.19999 21.6984 3.20254 22.907 3.36502C24.081 3.52287 24.7027 3.81158 25.1456 4.25441C25.5884 4.69723 25.8771 5.31894 26.0349 6.49298C26.1974 7.70154 26.2 9.30332 26.2 11.6V23.2ZM6.99997 9.99999C6.99997 9.33725 7.53723 8.79999 8.19997 8.79999H21C21.6627 8.79999 22.2 9.33725 22.2 9.99999C22.2 10.6627 21.6627 11.2 21 11.2H8.19997C7.53723 11.2 6.99997 10.6627 6.99997 9.99999ZM6.99997 15.6C6.99997 14.9372 7.53723 14.4 8.19997 14.4H16.2C16.8627 14.4 17.4 14.9372 17.4 15.6C17.4 16.2627 16.8627 16.8 16.2 16.8H8.19997C7.53723 16.8 6.99997 16.2627 6.99997 15.6Z" fill="#D1FF1B"/>
</svg>
