<svg width="24" height="24" viewBox="0 0 24 24" fill="none" xmlns="http://www.w3.org/2000/svg">
<g clip-path="url(#clip0_6_292)">
<path d="M16.1048 19.2406C15.8952 19.2406 15.6886 19.1447 15.5544 18.9632C15.3301 18.6596 15.3944 18.2315 15.698 18.0072C18.6548 15.8227 20.667 13.9083 21.5174 12.4709C22.2993 11.1492 22.6329 9.92955 22.6329 8.39265C22.6329 4.70733 20.031 3.05771 17.4525 3.05771C15.0765 3.05771 14.027 4.35788 13.6128 5.13282C13.4658 5.40798 13.1802 5.57907 12.8675 5.5793C12.8673 5.5793 12.8671 5.5793 12.8668 5.5793C12.5543 5.5793 12.2688 5.40868 12.1214 5.13394C11.7057 4.35849 10.6528 3.05766 8.2727 3.05766C5.76872 3.05766 3.85355 4.4955 3.2745 6.81006C3.18291 7.17624 2.8118 7.3989 2.44547 7.30731C2.07923 7.21571 1.85657 6.84446 1.94822 6.47827C2.67581 3.56982 5.15827 1.69045 8.2727 1.69045C10.7283 1.69045 12.1177 2.796 12.8662 3.77433C13.6128 2.79586 14.9995 1.69045 17.4524 1.69045C19.2165 1.69045 20.8401 2.3077 22.0242 3.42849C23.3167 4.65193 23.9999 6.36845 23.9999 8.39251C23.9999 10.1676 23.5971 11.64 22.694 13.1668C21.503 15.18 18.6739 17.5081 16.5104 19.1066C16.3882 19.1971 16.2459 19.2406 16.1048 19.2406Z" fill="#D1FF1B"/>
<path d="M7.46317 22.3095C7.28251 22.3095 7.10626 22.2582 6.95345 22.1612C6.47172 21.8556 2.20796 19.1096 0.878346 16.862C0.270891 15.8351 0 14.8433 0 13.6458C0 12.2666 0.46936 11.0938 1.35717 10.2543C2.16999 9.48564 3.28121 9.06236 4.48623 9.06236C5.99692 9.06236 6.92608 9.69715 7.46251 10.2849C7.99788 9.697 8.92544 9.06236 10.4345 9.06236C11.6394 9.06236 12.7502 9.48569 13.5624 10.2544C14.4492 11.0938 14.9179 12.2666 14.9179 13.6458C14.9179 14.8415 14.6466 15.8334 14.0382 16.862C12.7182 19.0931 8.45659 21.8526 7.975 22.1598C7.82148 22.2577 7.64458 22.3095 7.46317 22.3095ZM4.48623 10.4295C2.93368 10.4295 1.36716 11.4241 1.36716 13.6458C1.36716 14.5972 1.57289 15.3509 2.05505 16.1659C2.96152 17.6983 5.77895 19.772 7.46242 20.8634C9.05847 19.8208 11.9623 17.6856 12.8614 16.1659C13.3445 15.3492 13.5506 14.5955 13.5506 13.6458C13.5506 11.4241 11.9855 10.4295 10.4344 10.4295C9.0911 10.4295 8.45538 11.0915 8.15866 11.647C8.02145 11.9038 7.75488 12.0635 7.46308 12.0635C7.1718 12.0635 6.9055 11.9044 6.76811 11.6481C6.46998 11.0921 5.83225 10.4295 4.48623 10.4295Z" fill="#D1FF1B"/>
</g>
<defs>
<clipPath id="clip0_6_292">
<rect width="24" height="24" fill="white"/>
</clipPath>
</defs>
</svg>
