<svg width="35" height="36" viewBox="0 0 35 36" fill="none" xmlns="http://www.w3.org/2000/svg">
<path d="M13.7146 23.4359C13.1821 23.0413 12.4306 23.153 12.0359 23.6854C11.6413 24.2178 11.753 24.9694 12.2854 25.364C13.8413 26.5173 15.744 27.2 17.8 27.2C19.8559 27.2 21.7587 26.5173 23.3146 25.364C23.847 24.9694 23.9587 24.2178 23.564 23.6854C23.1694 23.153 22.4178 23.0413 21.8854 23.4359C20.7201 24.2997 19.3134 24.8 17.8 24.8C16.2865 24.8 14.8799 24.2997 13.7146 23.4359Z" fill="#D1FF1B"/>
<path fill-rule="evenodd" clip-rule="evenodd" d="M17.8 0.799988C16.667 0.799988 15.6376 1.1245 14.5209 1.66757C13.4413 2.19254 12.1943 2.96653 10.6365 3.9333L7.33003 5.98542C5.85611 6.90016 4.67588 7.63263 3.76622 8.32928C2.82421 9.05069 2.10069 9.78541 1.57807 10.7402C1.05654 11.693 0.821683 12.7068 0.70908 13.9051C0.599953 15.0665 0.599963 16.4866 0.599976 18.2676V20.8478C0.599954 23.894 0.599936 26.2985 0.844301 28.1786C1.09497 30.1071 1.62168 31.6641 2.81175 32.8951C4.00731 34.1318 5.52871 34.6842 7.41215 34.9462C9.23756 35.2 11.5689 35.2 14.5069 35.2H21.0929C24.031 35.2 26.3624 35.2 28.1878 34.9462C30.0712 34.6842 31.5926 34.1318 32.7882 32.8951C33.9783 31.6641 34.505 30.1071 34.7557 28.1786C35 26.2985 35 23.894 35 20.8478V18.2675C35 16.4866 35 15.0664 34.8909 13.9051C34.7783 12.7068 34.5434 11.693 34.0219 10.7402C33.4993 9.78541 32.7757 9.05069 31.8337 8.32928C30.9241 7.63264 29.7439 6.90018 28.27 5.98545L24.9634 3.93329C23.4057 2.96653 22.1586 2.19254 21.0791 1.66757C19.9623 1.1245 18.933 0.799988 17.8 0.799988ZM11.8472 6.00658C13.4724 4.99792 14.6152 4.29044 15.5704 3.8259C16.5011 3.37331 17.1603 3.19999 17.8 3.19999C18.4397 3.19999 19.0988 3.37331 20.0295 3.8259C20.9848 4.29044 22.1275 4.99792 23.7527 6.00657L26.9527 7.99258C28.4901 8.9467 29.5694 9.61815 30.3745 10.2347C31.1579 10.8346 31.6085 11.3297 31.9166 11.8926C32.2258 12.4574 32.4063 13.1178 32.5014 14.1296C32.5988 15.1657 32.6 16.4733 32.6 18.3263V20.7599C32.6 23.9135 32.5976 26.1619 32.3757 27.8692C32.1577 29.5461 31.7472 30.519 31.0627 31.227C30.3838 31.9293 29.4594 32.3462 27.8572 32.5691C26.2162 32.7973 24.052 32.8 21 32.8H14.6C11.5479 32.8 9.38371 32.7973 7.74273 32.5691C6.14055 32.3462 5.21619 31.9293 4.53724 31.227C3.85279 30.519 3.44224 29.5461 3.22428 27.8692C3.00236 26.1619 2.99998 23.9135 2.99998 20.7599V18.3263C2.99998 16.4733 3.0012 15.1657 3.09855 14.1296C3.19363 13.1178 3.37413 12.4574 3.68332 11.8926C3.99142 11.3297 4.4421 10.8346 5.22545 10.2347C6.03053 9.61815 7.10989 8.9467 8.64722 7.99259L11.8472 6.00658Z" fill="#D1FF1B"/>
</svg>
