<svg width="18" height="18" viewBox="0 0 18 18" fill="none" xmlns="http://www.w3.org/2000/svg">
<path fill-rule="evenodd" clip-rule="evenodd" d="M9.00005 0.399994C5.57589 0.399994 2.80005 3.17583 2.80005 6.59999V7.16328C2.80005 7.72081 2.63502 8.26588 2.32576 8.72977L1.40687 10.1081C0.340396 11.7078 1.15456 13.8822 3.00944 14.3881C3.61393 14.553 4.22352 14.6924 4.83664 14.8065L4.83816 14.8106C5.45336 16.4521 7.09761 17.6 9 17.6C10.9024 17.6 12.5466 16.4521 13.1618 14.8106L13.1634 14.8065C13.7765 14.6924 14.3861 14.553 14.9907 14.3881C16.8455 13.8822 17.6597 11.7078 16.5932 10.1081L15.6744 8.72978C15.3651 8.26588 15.2001 7.72081 15.2001 7.16328V6.59999C15.2001 3.17583 12.4242 0.399994 9.00005 0.399994ZM11.7012 15.0296C9.90682 15.244 8.09318 15.2439 6.29881 15.0296C6.86758 15.8468 7.85683 16.4 9 16.4C10.1432 16.4 11.1324 15.8468 11.7012 15.0296ZM4.00005 6.59999C4.00005 3.83857 6.23863 1.59999 9.00005 1.59999C11.7615 1.59999 14.0001 3.83857 14.0001 6.59999V7.16328C14.0001 7.95772 14.2352 8.7344 14.6759 9.39542L15.5948 10.7737C16.2069 11.6919 15.7396 12.94 14.6749 13.2304C10.9595 14.2437 7.04058 14.2437 3.32518 13.2304C2.26051 12.94 1.79319 11.6919 2.40533 10.7737L3.32422 9.39542C3.7649 8.7344 4.00005 7.95772 4.00005 7.16328V6.59999Z" fill="white"/>
</svg>
