<svg width="35" height="36" viewBox="0 0 35 36" fill="none" xmlns="http://www.w3.org/2000/svg">
<path fill-rule="evenodd" clip-rule="evenodd" d="M11.2 13.2C11.2 9.88628 13.8863 7.19999 17.2 7.19999C20.5137 7.19999 23.2 9.88628 23.2 13.2C23.2 16.5137 20.5137 19.2 17.2 19.2C13.8863 19.2 11.2 16.5137 11.2 13.2ZM17.2 9.59999C15.2118 9.59999 13.6 11.2118 13.6 13.2C13.6 15.1882 15.2118 16.8 17.2 16.8C19.1882 16.8 20.8 15.1882 20.8 13.2C20.8 11.2118 19.1882 9.59999 17.2 9.59999Z" fill="#D1FF1B"/>
<path fill-rule="evenodd" clip-rule="evenodd" d="M0 18C0 8.50069 7.7007 0.799988 17.2 0.799988C26.6993 0.799988 34.4 8.50069 34.4 18C34.4 27.4993 26.6993 35.2 17.2 35.2C7.7007 35.2 0 27.4993 0 18ZM17.2 3.19999C9.02619 3.19999 2.4 9.82617 2.4 18C2.4 22.0729 4.04523 25.7616 6.70737 28.4376C6.996 26.8806 7.56311 25.4126 8.70139 24.2321C10.404 22.4664 13.1267 21.6 17.1999 21.6C21.2732 21.6 23.9958 22.4664 25.6985 24.2321C26.8368 25.4126 27.4039 26.8807 27.6925 28.4378C30.3547 25.7617 32 22.073 32 18C32 9.82617 25.3738 3.19999 17.2 3.19999ZM25.5099 30.2486C25.3469 28.3095 24.9258 26.8885 23.9708 25.898C22.9317 24.8204 21.0063 24 17.1999 24C13.3936 24 11.4682 24.8204 10.429 25.898C9.47403 26.8884 9.05298 28.3095 8.88996 30.2485C11.2589 31.8589 14.1196 32.8 17.2 32.8C20.2804 32.8 23.1409 31.8589 25.5099 30.2486Z" fill="#D1FF1B"/>
</svg>
