<svg width="24" height="24" viewBox="0 0 24 24" fill="none" xmlns="http://www.w3.org/2000/svg">
<g clip-path="url(#clip0_6_248)">
<path d="M21.0122 22.3544H5.65734C4.67302 22.3544 3.7275 21.8884 3.12802 21.1077L0.486094 17.6675C0.396984 17.5514 0.349078 17.409 0.349922 17.2628L0.364969 14.6484C0.367078 14.2864 0.661219 13.9941 1.02314 13.9941C1.02375 13.9941 1.02431 13.9941 1.02488 13.9941C1.80759 13.9961 2.92875 13.9996 3.82538 14.005C4.22227 14.0074 4.55841 14.0101 4.79611 14.013C5.30213 14.0192 5.43802 14.0209 5.63241 14.2152L9.50541 18.0882C9.95283 18.5357 10.681 18.5357 11.1285 18.0882L11.1344 18.0824C11.3511 17.8656 11.4705 17.5774 11.4705 17.2708C11.4705 16.9642 11.3511 16.676 11.1344 16.4593L7.51224 12.8951C7.07798 12.4678 6.50339 12.2325 5.8942 12.2325H0.658172C0.294656 12.2326 0 11.9379 0 11.5744C0 11.2109 0.294656 10.9162 0.658172 10.9162H5.89416C6.85097 10.9162 7.75345 11.2858 8.43548 11.957L12.0614 15.5249C12.5305 15.9939 12.7869 16.6128 12.7869 17.2709C12.7869 17.9291 12.5305 18.5479 12.0652 19.0133L12.0594 19.0191C11.0986 19.9799 9.53555 19.9799 8.57466 19.0191L4.8862 15.3307C4.47108 15.3248 3.47972 15.3179 1.67756 15.3124L1.66758 17.0448L4.17202 20.3061C4.52409 20.7645 5.07933 21.0382 5.65734 21.0382H21.0122C21.645 21.0382 22.1599 20.5234 22.1599 19.8905V19.8822C22.1599 19.2494 21.6451 18.7345 21.0122 18.7345H14.6595C14.296 18.7345 14.0013 18.4398 14.0013 18.0763C14.0013 17.7128 14.296 17.4181 14.6595 17.4181H21.0121C22.3708 17.4181 23.4762 18.5235 23.4762 19.8822V19.8905C23.4763 21.249 22.371 22.3544 21.0122 22.3544Z" fill="#D1FF1B"/>
<path d="M17.6396 16.3595C17.276 16.3595 16.9814 16.0648 16.9814 15.7013V7.95159C16.9814 7.58808 17.276 7.29342 17.6396 7.29342C18.0031 7.29342 18.2977 7.58808 18.2977 7.95159V15.7012C18.2978 16.0648 18.0031 16.3595 17.6396 16.3595Z" fill="#D1FF1B"/>
<path d="M17.6396 10.4411C17.5206 10.4411 17.4017 10.4089 17.2964 10.3445C17.1717 10.2682 14.2422 8.45011 14.2422 6.04331C14.2422 3.63651 17.1717 1.81837 17.2964 1.74216C17.5071 1.61334 17.7722 1.61334 17.9829 1.74216C18.1076 1.81837 21.0371 3.63661 21.0371 6.04331C21.0371 8.45001 18.1076 10.2682 17.9829 10.3445C17.8775 10.4088 17.7586 10.4411 17.6396 10.4411ZM17.6404 3.09628C16.849 3.66989 15.5586 4.85489 15.5586 6.04331C15.5586 7.23726 16.847 8.41861 17.6388 8.99034C18.4307 8.41636 19.7207 7.23159 19.7207 6.04331C19.7207 4.84931 18.4322 3.66792 17.6404 3.09628Z" fill="#D1FF1B"/>
<path d="M19.6487 14.7788C18.5991 14.7788 17.7426 14.575 17.7066 14.5663C17.4665 14.5084 17.2791 14.3209 17.2212 14.0809C17.1869 13.9388 16.4011 10.5817 18.1029 8.8799C18.829 8.15386 19.9254 7.78565 21.3619 7.78565C22.4114 7.78565 23.268 7.98951 23.304 7.99818C23.544 8.05612 23.7315 8.24357 23.7894 8.48357C23.8237 8.62565 24.6094 11.9827 22.9076 13.6846C22.1815 14.4107 21.085 14.7788 19.6487 14.7788ZM18.4214 13.3629C18.7227 13.4103 19.1639 13.4625 19.6487 13.4625C20.3875 13.4625 21.3911 13.3396 21.9768 12.7539C22.8202 11.9104 22.7455 10.1666 22.5902 9.20193C22.2888 9.1544 21.8472 9.10214 21.3618 9.10214C20.623 9.10214 19.6194 9.22509 19.0337 9.81079C18.1946 10.6499 18.2677 12.3962 18.4214 13.3629Z" fill="#D1FF1B"/>
<path d="M15.6308 14.7788C15.6306 14.7788 15.6307 14.7788 15.6306 14.7788C14.1941 14.7788 13.0977 14.4106 12.3716 13.6846C10.6698 11.9827 11.4556 8.62565 11.4899 8.48357C11.5478 8.24353 11.7353 8.05607 11.9753 7.99818C12.0112 7.98951 12.8679 7.78565 13.9173 7.78565C15.3538 7.78565 16.4502 8.15386 17.1763 8.8799C18.8781 10.5817 18.0923 13.9388 18.058 14.0809C18.0001 14.321 17.8126 14.5084 17.5726 14.5663C17.5367 14.575 16.6802 14.7788 15.6308 14.7788ZM12.6902 9.20118C12.5365 10.167 12.463 11.9144 13.3025 12.7538C13.8882 13.3395 14.8918 13.4625 15.6307 13.4625H15.6308C16.1188 13.4625 16.5581 13.4107 16.8579 13.3634C17.0116 12.3975 17.0851 10.6501 16.2456 9.81075C15.6599 9.22504 14.6563 9.10209 13.9174 9.10209C13.4294 9.10209 12.99 9.15389 12.6902 9.20118Z" fill="#D1FF1B"/>
</g>
<defs>
<clipPath id="clip0_6_248">
<rect width="24" height="24" fill="white"/>
</clipPath>
</defs>
</svg>
