<svg width="18" height="18" viewBox="0 0 18 18" fill="none" xmlns="http://www.w3.org/2000/svg">
<path d="M8.40002 1C8.40002 0.668631 8.66865 0.400002 9.00002 0.400002C13.7497 0.400002 17.6 4.25035 17.6 9C17.6 13.7497 13.7497 17.6 9.00002 17.6C4.25038 17.6 0.400024 13.7497 0.400024 9C0.400024 6.59437 1.38854 4.41853 2.98 2.8584C3.21663 2.62642 3.59651 2.6302 3.82848 2.86683C4.06046 3.10346 4.05668 3.48334 3.82005 3.71531C2.44933 5.05906 1.60002 6.9298 1.60002 9C1.60002 13.0869 4.91312 16.4 9.00002 16.4C13.0869 16.4 16.4 13.0869 16.4 9C16.4 4.91309 13.0869 1.6 9.00002 1.6C8.66865 1.6 8.40002 1.33137 8.40002 1Z" fill="#D1FF1B"/>
<path d="M8.40002 3.4C8.40002 3.06863 8.66865 2.8 9.00002 2.8C12.4242 2.8 15.2 5.57584 15.2 9C15.2 12.4242 12.4242 15.2 9.00002 15.2C5.57586 15.2 2.80002 12.4242 2.80002 9C2.80002 8.66863 3.06865 8.4 3.40002 8.4C3.7314 8.4 4.00002 8.66863 4.00002 9C4.00002 11.7614 6.2386 14 9.00002 14C11.7614 14 14 11.7614 14 9C14 6.23858 11.7614 4 9.00002 4C8.66865 4 8.40002 3.73137 8.40002 3.4Z" fill="#D1FF1B"/>
<path d="M9.00002 5.2C8.66865 5.2 8.40002 5.46863 8.40002 5.8C8.40002 6.13137 8.66865 6.4 9.00002 6.4C10.436 6.4 11.6 7.56406 11.6 9C11.6 10.4359 10.436 11.6 9.00002 11.6C8.66865 11.6 8.40002 11.8686 8.40002 12.2C8.40002 12.5314 8.66865 12.8 9.00002 12.8C11.0987 12.8 12.8 11.0987 12.8 9C12.8 6.90132 11.0987 5.2 9.00002 5.2Z" fill="#D1FF1B"/>
</svg>
