<svg width="40" height="40" viewBox="0 0 40 40" fill="none" xmlns="http://www.w3.org/2000/svg">
<path fill-rule="evenodd" clip-rule="evenodd" d="M19.9307 5.66666H20.0694C21.2673 5.66662 22.2663 5.66659 23.0593 5.77321C23.8964 5.88575 24.6521 6.13331 25.2594 6.7406C25.8667 7.34789 26.1143 8.10363 26.2268 8.94069C26.3056 9.52682 26.3262 10.2254 26.3315 11.0338C27.1962 11.0615 27.967 11.1121 28.6521 11.2042C30.2153 11.4143 31.4805 11.8572 32.4784 12.855C33.4762 13.8528 33.919 15.1181 34.1292 16.6813C34.3334 18.2002 34.3334 20.1411 34.3334 22.5914V22.7419C34.3334 25.1922 34.3334 27.1331 34.1292 28.652C33.919 30.2153 33.4762 31.4805 32.4784 32.4783C31.4805 33.4762 30.2153 33.919 28.6521 34.1291C27.1331 34.3334 25.1923 34.3333 22.7419 34.3333H17.2581C14.8078 34.3333 12.8669 34.3334 11.348 34.1291C9.78476 33.919 8.5195 33.4762 7.52168 32.4783C6.52386 31.4805 6.08104 30.2153 5.87087 28.652C5.66665 27.1331 5.66667 25.1922 5.66669 22.7419V22.5914C5.66667 20.1411 5.66665 18.2002 5.87087 16.6813C6.08104 15.1181 6.52386 13.8528 7.52168 12.855C8.5195 11.8572 9.78476 11.4143 11.348 11.2042C12.033 11.1121 12.8039 11.0615 13.6686 11.0338C13.6739 10.2254 13.6944 9.52682 13.7732 8.94069C13.8858 8.10363 14.1333 7.34789 14.7406 6.7406C15.3479 6.13331 16.1037 5.88575 16.9407 5.77321C17.7338 5.66659 18.7327 5.66662 19.9307 5.66666ZM15.6691 11.0024C16.1733 11 16.7026 11 17.2581 11H22.7419C23.2974 11 23.8268 11 24.331 11.0024C24.3253 10.2419 24.3066 9.66833 24.2446 9.20718C24.1619 8.5919 24.019 8.32857 23.8452 8.15481C23.6714 7.98106 23.4081 7.8381 22.7928 7.75537C22.1488 7.66878 21.2854 7.66666 20 7.66666C18.7147 7.66666 17.8513 7.66878 17.2072 7.75537C16.5919 7.8381 16.3286 7.98106 16.1548 8.15481C15.9811 8.32857 15.8381 8.5919 15.7554 9.20718C15.6934 9.66833 15.6747 10.2419 15.6691 11.0024ZM11.6145 13.1863C10.273 13.3667 9.50017 13.7049 8.93589 14.2692C8.37161 14.8335 8.03339 15.6063 7.85303 16.9478C7.66881 18.318 7.66669 20.1242 7.66669 22.6667C7.66669 25.2091 7.66881 27.0153 7.85303 28.3855C8.03339 29.727 8.37161 30.4998 8.93589 31.0641C9.50017 31.6284 10.273 31.9666 11.6145 32.147C12.9847 32.3312 14.7909 32.3333 17.3334 32.3333H22.6667C25.2091 32.3333 27.0153 32.3312 28.3856 32.147C29.727 31.9666 30.4999 31.6284 31.0641 31.0641C31.6284 30.4998 31.9667 29.727 32.147 28.3855C32.3312 27.0153 32.3334 25.2091 32.3334 22.6667C32.3334 20.1242 32.3312 18.318 32.147 16.9478C31.9667 15.6063 31.6284 14.8335 31.0641 14.2692C30.4999 13.7049 29.727 13.3667 28.3856 13.1863C27.0153 13.0021 25.2091 13 22.6667 13H17.3334C14.7909 13 12.9847 13.0021 11.6145 13.1863Z" fill="white"/>
<path d="M26.6667 16C26.6667 16.7364 26.0697 17.3333 25.3334 17.3333C24.597 17.3333 24 16.7364 24 16C24 15.2636 24.597 14.6667 25.3334 14.6667C26.0697 14.6667 26.6667 15.2636 26.6667 16Z" fill="white"/>
<path d="M16 16C16 16.7364 15.4031 17.3333 14.6667 17.3333C13.9303 17.3333 13.3334 16.7364 13.3334 16C13.3334 15.2636 13.9303 14.6667 14.6667 14.6667C15.4031 14.6667 16 15.2636 16 16Z" fill="white"/>
</svg>
