<svg width="18" height="18" viewBox="0 0 18 18" fill="none" xmlns="http://www.w3.org/2000/svg">
<path fill-rule="evenodd" clip-rule="evenodd" d="M8.40002 1C8.40002 0.668631 8.66865 0.400002 9.00002 0.400002C13.7497 0.400002 17.6 4.25035 17.6 9C17.6 13.7497 13.7497 17.6 9.00002 17.6C4.25038 17.6 0.400024 13.7497 0.400024 9C0.400024 8.66863 0.668654 8.4 1.00002 8.4C1.3314 8.4 1.60002 8.66863 1.60002 9C1.60002 13.0869 4.91312 16.4 9.00002 16.4C13.0869 16.4 16.4 13.0869 16.4 9C16.4 4.91309 13.0869 1.6 9.00002 1.6C8.66865 1.6 8.40002 1.33137 8.40002 1ZM9.00002 6C9.3314 6 9.60002 6.26863 9.60002 6.6V9.2H12.2C12.5314 9.2 12.8 9.46863 12.8 9.8C12.8 10.1314 12.5314 10.4 12.2 10.4H9.00002C8.66865 10.4 8.40002 10.1314 8.40002 9.8V6.6C8.40002 6.26863 8.66865 6 9.00002 6Z" fill="#D1FF1B"/>
<path fill-rule="evenodd" clip-rule="evenodd" d="M6.67968 1.31803C6.79902 1.62717 6.64515 1.97452 6.33601 2.09385C6.22287 2.13753 6.11106 2.18391 6.00066 2.23292C5.6978 2.36737 5.34328 2.23085 5.20882 1.92798C5.07437 1.62511 5.21089 1.27059 5.51376 1.13614C5.64216 1.07913 5.77223 1.02518 5.90387 0.974363C6.21301 0.855029 6.56035 1.0089 6.67968 1.31803ZM3.91819 2.79221C4.14672 3.03217 4.13745 3.41196 3.89749 3.64049C3.80976 3.72405 3.72407 3.80973 3.64051 3.89747C3.41198 4.13743 3.0322 4.14669 2.79224 3.91816C2.55228 3.68964 2.54301 3.30985 2.77154 3.06989C2.86855 2.96802 2.96804 2.86853 3.06991 2.77152C3.30987 2.54299 3.68966 2.55225 3.91819 2.79221ZM1.928 5.2088C2.23087 5.34325 2.36739 5.69777 2.23294 6.00064C2.18393 6.11104 2.13755 6.22285 2.09387 6.33599C1.97454 6.64513 1.62719 6.799 1.31806 6.67966C1.00892 6.56033 0.855052 6.21298 0.974385 5.90385C1.0252 5.77221 1.07916 5.64214 1.13616 5.51374C1.27062 5.21087 1.62514 5.07434 1.928 5.2088Z" fill="#D1FF1B"/>
</svg>
