<svg width="34" height="34" viewBox="0 0 34 34" fill="none" xmlns="http://www.w3.org/2000/svg">
<path fill-rule="evenodd" clip-rule="evenodd" d="M0.600006 8.19998C0.600006 4.00261 4.00264 0.599976 8.20001 0.599976C12.3974 0.599976 15.8 4.00261 15.8 8.19998V12.4666C15.8 12.5007 15.8001 12.5349 15.8001 12.5692C15.8009 12.9573 15.8017 13.3622 15.7046 13.7247C15.4457 14.6909 14.691 15.4457 13.7247 15.7046C13.3622 15.8017 12.9574 15.8009 12.5692 15.8001C12.5349 15.8 12.5007 15.8 12.4667 15.8H8.20001C4.00264 15.8 0.600006 12.3973 0.600006 8.19998ZM8.20001 2.99998C5.32813 2.99998 3.00001 5.32809 3.00001 8.19998C3.00001 11.0719 5.32813 13.4 8.20001 13.4H12.4667C12.7255 13.4 12.8797 13.3997 12.9954 13.3944C13.0683 13.3911 13.0997 13.3866 13.1074 13.3853C13.2423 13.3477 13.3477 13.2423 13.3853 13.1074C13.3866 13.0996 13.3911 13.0682 13.3944 12.9954C13.3997 12.8796 13.4 12.7255 13.4 12.4666V8.19998C13.4 5.32809 11.0719 2.99998 8.20001 2.99998Z" fill="#D1FF1B"/>
<path fill-rule="evenodd" clip-rule="evenodd" d="M21.4308 18.1998C21.4651 18.1999 21.4993 18.2 21.5333 18.2H25.8C29.9974 18.2 33.4 21.6026 33.4 25.8C33.4 29.9973 29.9974 33.4 25.8 33.4C21.6026 33.4 18.2 29.9973 18.2 25.8V21.5333C18.2 21.4993 18.1999 21.4651 18.1999 21.4307C18.1991 21.0426 18.1983 20.6377 18.2954 20.2753C18.5543 19.309 19.3091 18.5543 20.2753 18.2954C20.6378 18.1983 21.0426 18.1991 21.4308 18.1998ZM20.8926 20.6147C20.7577 20.6523 20.6523 20.7577 20.6147 20.8926C20.6134 20.9003 20.6089 20.9317 20.6056 21.0046C20.6003 21.1203 20.6 21.2744 20.6 21.5333V25.8C20.6 28.6719 22.9281 31 25.8 31C28.6719 31 31 28.6719 31 25.8C31 22.9281 28.6719 20.6 25.8 20.6H21.5333C21.2745 20.6 21.1203 20.6003 21.0046 20.6055C20.9318 20.6089 20.9003 20.6134 20.8926 20.6147Z" fill="#D1FF1B"/>
<path fill-rule="evenodd" clip-rule="evenodd" d="M12.9932 20.6178C12.7866 20.6009 12.5078 20.6 12.04 20.6H8.20001C5.32813 20.6 3.00001 22.9281 3.00001 25.8C3.00001 28.6719 5.32813 31 8.20001 31C11.0719 31 13.4 28.6719 13.4 25.8V21.96C13.4 21.4921 13.3991 21.2134 13.3822 21.0068C13.3719 20.8807 13.3583 20.8277 13.3539 20.8135C13.3163 20.7421 13.2579 20.6837 13.1865 20.6461C13.1723 20.6417 13.1193 20.6281 12.9932 20.6178ZM13.1906 20.6475L13.1882 20.6466L13.1906 20.6475ZM13.3524 20.8094L13.3533 20.8118L13.3524 20.8094ZM13.1886 18.2258C13.5296 18.2536 13.9027 18.3174 14.2712 18.5052C14.798 18.7736 15.2264 19.2019 15.4948 19.7288C15.6826 20.0973 15.7464 20.4704 15.7742 20.8114C15.8001 21.1277 15.8 21.506 15.8 21.918L15.8 25.8C15.8 29.9973 12.3974 33.4 8.20001 33.4C4.00264 33.4 0.600006 29.9973 0.600006 25.8C0.600006 21.6026 4.00264 18.2 8.20001 18.2L12.082 18.2C12.4939 18.1999 12.8723 18.1999 13.1886 18.2258Z" fill="#D1FF1B"/>
<path fill-rule="evenodd" clip-rule="evenodd" d="M18.2 8.19998C18.2 4.00261 21.6026 0.599976 25.8 0.599976C29.9974 0.599976 33.4 4.00261 33.4 8.19998C33.4 12.3973 29.9974 15.8 25.8 15.8H21.2286C21.214 15.8 21.1993 15.8 21.1846 15.8C21.0183 15.8001 20.8456 15.8003 20.6865 15.7824C19.3884 15.6361 18.3639 14.6116 18.2176 13.3135C18.1997 13.1544 18.1998 12.9817 18.2 12.8154C18.2 12.8007 18.2 12.786 18.2 12.7714V8.19998ZM25.8 2.99998C22.9281 2.99998 20.6 5.32809 20.6 8.19998V12.7714C20.6 12.8822 20.6001 12.9481 20.601 12.9979C20.6017 13.0295 20.6025 13.0433 20.6027 13.0466C20.6243 13.2306 20.7694 13.3757 20.9534 13.3972C20.9566 13.3975 20.9704 13.3983 21.0021 13.3989C21.0518 13.3999 21.1178 13.4 21.2286 13.4H25.8C28.6719 13.4 31 11.0719 31 8.19998C31 5.32809 28.6719 2.99998 25.8 2.99998Z" fill="#D1FF1B"/>
</svg>
