<svg width="40" height="40" viewBox="0 0 40 40" fill="none" xmlns="http://www.w3.org/2000/svg">
<path fill-rule="evenodd" clip-rule="evenodd" d="M20 5.66666C16.5022 5.66666 13.6667 8.50219 13.6667 12C13.6667 15.4978 16.5022 18.3333 20 18.3333C23.4978 18.3333 26.3334 15.4978 26.3334 12C26.3334 8.50219 23.4978 5.66666 20 5.66666ZM15.6667 12C15.6667 9.60676 17.6068 7.66666 20 7.66666C22.3933 7.66666 24.3334 9.60676 24.3334 12C24.3334 14.3932 22.3933 16.3333 20 16.3333C17.6068 16.3333 15.6667 14.3932 15.6667 12Z" fill="white"/>
<path d="M28 8.33332C27.4478 8.33332 27 8.78104 27 9.33332C27 9.88561 27.4478 10.3333 28 10.3333C29.8354 10.3333 31 11.541 31 12.6667C31 13.7923 29.8354 15 28 15C27.4478 15 27 15.4477 27 16C27 16.5523 27.4478 17 28 17C30.583 17 33 15.2229 33 12.6667C33 10.1105 30.583 8.33332 28 8.33332Z" fill="white"/>
<path d="M13 9.33332C13 8.78104 12.5523 8.33332 12 8.33332C9.41708 8.33332 7.00004 10.1105 7.00004 12.6667C7.00004 15.2229 9.41708 17 12 17C12.5523 17 13 16.5523 13 16C13 15.4477 12.5523 15 12 15C10.1647 15 9.00004 13.7923 9.00004 12.6667C9.00004 11.541 10.1647 10.3333 12 10.3333C12.5523 10.3333 13 9.88561 13 9.33332Z" fill="white"/>
<path fill-rule="evenodd" clip-rule="evenodd" d="M20 20.3333C17.621 20.3333 15.422 20.9744 13.7885 22.0634C12.162 23.1477 11 24.7555 11 26.6667C11 28.5778 12.162 30.1856 13.7885 31.2699C15.422 32.3589 17.621 33 20 33C22.3791 33 24.5781 32.3589 26.2116 31.2699C27.8381 30.1856 29 28.5778 29 26.6667C29 24.7555 27.8381 23.1477 26.2116 22.0634C24.5781 20.9744 22.3791 20.3333 20 20.3333ZM13 26.6667C13 25.6323 13.629 24.5734 14.8979 23.7275C16.1598 22.8862 17.9608 22.3333 20 22.3333C22.0393 22.3333 23.8403 22.8862 25.1022 23.7275C26.3711 24.5734 27 25.6323 27 26.6667C27 27.701 26.3711 28.7599 25.1022 29.6058C23.8403 30.4471 22.0393 31 20 31C17.9608 31 16.1598 30.4471 14.8979 29.6058C13.629 28.7599 13 27.701 13 26.6667Z" fill="white"/>
<path d="M29.6899 22.4525C29.8082 21.913 30.3414 21.5716 30.8809 21.6899C32.1634 21.9711 33.3191 22.4791 34.1771 23.1812C35.0344 23.8827 35.6667 24.847 35.6667 26C35.6667 27.153 35.0344 28.1173 34.1771 28.8188C33.3191 29.5209 32.1634 30.0289 30.8809 30.3101C30.3414 30.4284 29.8082 30.087 29.6899 29.5475C29.5716 29.0081 29.913 28.4748 30.4525 28.3565C31.509 28.1249 32.3533 27.7269 32.9105 27.2709C33.4685 26.8143 33.6667 26.3684 33.6667 26C33.6667 25.6316 33.4685 25.1857 32.9105 24.7291C32.3533 24.2731 31.509 23.8751 30.4525 23.6434C29.913 23.5251 29.5716 22.9919 29.6899 22.4525Z" fill="white"/>
<path d="M9.11917 21.6899C9.65864 21.5716 10.1919 21.913 10.3102 22.4525C10.4285 22.9919 10.087 23.5251 9.54758 23.6434C8.49109 23.8751 7.64678 24.2731 7.08954 24.7291C6.53154 25.1857 6.33337 25.6316 6.33337 26C6.33337 26.3684 6.53154 26.8143 7.08954 27.2709C7.64678 27.7269 8.49109 28.1249 9.54758 28.3565C10.087 28.4748 10.4285 29.0081 10.3102 29.5475C10.1919 30.087 9.65864 30.4284 9.11917 30.3101C7.83666 30.0289 6.68098 29.5209 5.82296 28.8188C4.96571 28.1173 4.33337 27.153 4.33337 26C4.33337 24.847 4.96571 23.8827 5.82296 23.1812C6.68098 22.4791 7.83666 21.9711 9.11917 21.6899Z" fill="white"/>
</svg>
