<svg width="18" height="18" viewBox="0 0 18 18" fill="none" xmlns="http://www.w3.org/2000/svg">
<path d="M9.60002 6.59999C9.60002 6.26862 9.3314 5.99999 9.00002 5.99999C8.66865 5.99999 8.40002 6.26862 8.40002 6.59999L8.40002 8.40001H6.60002C6.26865 8.40001 6.00002 8.66864 6.00002 9.00001C6.00002 9.33139 6.26865 9.60001 6.60002 9.60001H8.40002V11.4C8.40002 11.7314 8.66865 12 9.00002 12C9.3314 12 9.60002 11.7314 9.60002 11.4V9.60001H11.4C11.7314 9.60001 12 9.33138 12 9.00001C12 8.66864 11.7314 8.40001 11.4 8.40001H9.60002V6.59999Z" fill="white"/>
<path fill-rule="evenodd" clip-rule="evenodd" d="M9.00002 0.399994C4.25038 0.399994 0.400024 4.25035 0.400024 8.99999C0.400024 13.7496 4.25038 17.6 9.00002 17.6C13.7497 17.6 17.6 13.7496 17.6 8.99999C17.6 4.25035 13.7497 0.399994 9.00002 0.399994ZM1.60002 8.99999C1.60002 4.91309 4.91312 1.59999 9.00002 1.59999C13.0869 1.59999 16.4 4.91309 16.4 8.99999C16.4 13.0869 13.0869 16.4 9.00002 16.4C4.91312 16.4 1.60002 13.0869 1.60002 8.99999Z" fill="white"/>
</svg>
