<svg width="35" height="36" viewBox="0 0 35 36" fill="none" xmlns="http://www.w3.org/2000/svg">
<path d="M16.2 1.99999C16.2 1.33725 16.7372 0.799988 17.4 0.799988C26.8993 0.799988 34.6 8.50069 34.6 18C34.6 27.4993 26.8993 35.2 17.4 35.2C7.90068 35.2 0.199982 27.4993 0.199982 18C0.199982 13.1887 2.17701 8.83705 5.35993 5.71678C5.83319 5.25283 6.59295 5.26038 7.0569 5.73364C7.52085 6.20691 7.5133 6.96667 7.04003 7.43061C4.29859 10.1181 2.59998 13.8596 2.59998 18C2.59998 26.1738 9.22617 32.8 17.4 32.8C25.5738 32.8 32.2 26.1738 32.2 18C32.2 9.82617 25.5738 3.19999 17.4 3.19999C16.7372 3.19999 16.2 2.66273 16.2 1.99999Z" fill="white" fill-opacity="0.4"/>
<path d="M16.2 6.79999C16.2 6.13725 16.7372 5.59999 17.4 5.59999C24.2483 5.59999 29.8 11.1517 29.8 18C29.8 24.8483 24.2483 30.4 17.4 30.4C10.5517 30.4 4.99998 24.8483 4.99998 18C4.99998 17.3372 5.53724 16.8 6.19998 16.8C6.86272 16.8 7.39998 17.3372 7.39998 18C7.39998 23.5228 11.8771 28 17.4 28C22.9228 28 27.4 23.5228 27.4 18C27.4 12.4771 22.9228 7.99999 17.4 7.99999C16.7372 7.99999 16.2 7.46273 16.2 6.79999Z" fill="white" fill-opacity="0.4"/>
<path d="M17.4 10.4C16.7372 10.4 16.2 10.9372 16.2 11.6C16.2 12.2627 16.7372 12.8 17.4 12.8C20.2719 12.8 22.6 15.1281 22.6 18C22.6 20.8719 20.2719 23.2 17.4 23.2C16.7372 23.2 16.2 23.7372 16.2 24.4C16.2 25.0627 16.7372 25.6 17.4 25.6C21.5973 25.6 25 22.1974 25 18C25 13.8026 21.5973 10.4 17.4 10.4Z" fill="white" fill-opacity="0.4"/>
</svg>
